<svg width="512" height="512" viewBox="0 0 512 512" fill="none" xmlns="http://www.w3.org/2000/svg">
    <path fill-rule="evenodd" clip-rule="evenodd" d="M318.473 316.473C260.017 374.928 165.241 374.928 106.785 316.473C48.3294 258.017 48.3294 163.241 106.785 104.785C165.241 46.329 260.017 46.329 318.473 104.785C376.929 163.241 376.929 258.017 318.473 316.473ZM325.078 343.012C256.837 401.106 154.288 397.916 89.8147 333.443C21.9862 265.615 21.9862 155.643 89.8147 87.8144C157.643 19.9859 267.615 19.9859 335.443 87.8144C401.062 153.432 403.2 258.492 341.859 326.681C342.544 327.128 343.195 327.653 343.797 328.255L464.826 449.284C469.513 453.971 469.513 461.569 464.826 466.255C460.14 470.941 452.542 470.941 447.856 466.255L326.826 345.226C326.144 344.543 325.561 343.799 325.078 343.012Z" fill="#fff"/>
</svg>
