<svg width="605" height="293" viewBox="0 0 605 293" fill="none" xmlns="http://www.w3.org/2000/svg">
<g clip-path="url(#clip0_251_153)">
<path fill-rule="evenodd" clip-rule="evenodd" d="M30.2418 0H280.636C280.636 11.9433 290.311 21.6189 302.254 21.6189C314.16 21.6189 323.836 11.9433 323.836 0H574.229C574.229 54.6898 604.465 74.6835 604.465 146.419C604.465 218.117 574.229 238.11 574.229 292.8H323.836C323.836 280.857 314.16 271.219 302.254 271.219C290.311 271.219 280.636 280.857 280.636 292.8H30.2418C30.2418 238.11 0.00561523 218.117 0.00561523 146.419C0.00561523 74.6835 30.2418 54.6898 30.2418 0ZM67.0544 238.639H537.454V247.446H67.0544V238.639ZM67.0544 45.3543H537.454V54.1606H67.0544V45.3543Z" fill="#E5F500"/>
<path d="M51.64 182V127.84H41.88V117.2H75.72V127.84H66.04V182H51.64ZM85.425 182V117.2H103.265C107.638 117.2 111.425 117.68 114.625 118.64C117.825 119.6 120.305 121.333 122.065 123.84C123.878 126.293 124.785 129.787 124.785 134.32C124.785 136.987 124.572 139.36 124.145 141.44C123.718 143.52 122.918 145.333 121.745 146.88C120.625 148.373 118.998 149.627 116.865 150.64L125.745 182H110.945L103.825 152.96H99.745V182H85.425ZM99.745 144.72H103.745C105.772 144.72 107.345 144.373 108.465 143.68C109.585 142.933 110.358 141.893 110.785 140.56C111.265 139.173 111.505 137.52 111.505 135.6C111.505 132.827 110.998 130.667 109.985 129.12C108.972 127.573 107.105 126.8 104.385 126.8H99.745V144.72ZM134.274 182L146.514 117.2H162.834L174.914 182H161.714L159.554 168.32H150.034L147.794 182H134.274ZM151.314 159.76H158.194L154.754 134.48L151.314 159.76ZM185.456 182V117.2H195.536L208.816 148.4V117.2H220.656V182H210.976L197.696 148.4V182H185.456ZM251.5 182.96C247.447 182.96 244.06 182.24 241.34 180.8C238.62 179.36 236.567 177.147 235.18 174.16C233.793 171.12 233.02 167.2 232.86 162.4L245.1 160.56C245.153 163.333 245.393 165.573 245.82 167.28C246.3 168.987 246.94 170.213 247.74 170.96C248.593 171.707 249.607 172.08 250.78 172.08C252.273 172.08 253.233 171.573 253.66 170.56C254.14 169.547 254.38 168.48 254.38 167.36C254.38 164.693 253.74 162.453 252.46 160.64C251.18 158.773 249.447 156.907 247.26 155.04L241.66 150.16C239.207 148.08 237.127 145.733 235.42 143.12C233.767 140.453 232.94 137.173 232.94 133.28C232.94 127.787 234.567 123.6 237.82 120.72C241.073 117.787 245.5 116.32 251.1 116.32C254.567 116.32 257.34 116.907 259.42 118.08C261.553 119.253 263.153 120.8 264.22 122.72C265.34 124.587 266.087 126.587 266.46 128.72C266.887 130.8 267.127 132.8 267.18 134.72L254.86 136.24C254.807 134.32 254.673 132.667 254.46 131.28C254.3 129.84 253.927 128.747 253.34 128C252.753 127.2 251.847 126.8 250.62 126.8C249.287 126.8 248.3 127.36 247.66 128.48C247.073 129.6 246.78 130.72 246.78 131.84C246.78 134.24 247.34 136.213 248.46 137.76C249.633 139.253 251.153 140.827 253.02 142.48L258.38 147.2C261.207 149.6 263.58 152.32 265.5 155.36C267.473 158.4 268.46 162.16 268.46 166.64C268.46 169.68 267.767 172.453 266.38 174.96C264.993 177.413 263.02 179.36 260.46 180.8C257.953 182.24 254.967 182.96 251.5 182.96ZM279.394 182V117.2H307.394V126.88H293.714V143.2H305.634V153.2H293.714V182H279.394ZM336.641 182.96C331.788 182.96 327.948 182.107 325.121 180.4C322.295 178.693 320.268 176.24 319.041 173.04C317.815 169.84 317.201 166.027 317.201 161.6V137.52C317.201 133.04 317.815 129.227 319.041 126.08C320.268 122.933 322.295 120.533 325.121 118.88C327.948 117.173 331.788 116.32 336.641 116.32C341.548 116.32 345.415 117.173 348.241 118.88C351.121 120.533 353.175 122.933 354.401 126.08C355.628 129.227 356.241 133.04 356.241 137.52V161.6C356.241 166.027 355.628 169.84 354.401 173.04C353.175 176.24 351.121 178.693 348.241 180.4C345.415 182.107 341.548 182.96 336.641 182.96ZM336.641 172.8C338.135 172.8 339.228 172.427 339.921 171.68C340.615 170.933 341.068 169.973 341.281 168.8C341.495 167.627 341.601 166.427 341.601 165.2V134C341.601 132.72 341.495 131.52 341.281 130.4C341.068 129.227 340.615 128.267 339.921 127.52C339.228 126.773 338.135 126.4 336.641 126.4C335.255 126.4 334.215 126.773 333.521 127.52C332.828 128.267 332.375 129.227 332.161 130.4C331.948 131.52 331.841 132.72 331.841 134V165.2C331.841 166.427 331.921 167.627 332.081 168.8C332.295 169.973 332.721 170.933 333.361 171.68C334.055 172.427 335.148 172.8 336.641 172.8ZM368.956 182V117.2H386.796C391.17 117.2 394.956 117.68 398.156 118.64C401.356 119.6 403.836 121.333 405.596 123.84C407.41 126.293 408.316 129.787 408.316 134.32C408.316 136.987 408.103 139.36 407.676 141.44C407.25 143.52 406.45 145.333 405.276 146.88C404.156 148.373 402.53 149.627 400.396 150.64L409.276 182H394.476L387.356 152.96H383.276V182H368.956ZM383.276 144.72H387.276C389.303 144.72 390.876 144.373 391.996 143.68C393.116 142.933 393.89 141.893 394.316 140.56C394.796 139.173 395.036 137.52 395.036 135.6C395.036 132.827 394.53 130.667 393.516 129.12C392.503 127.573 390.636 126.8 387.916 126.8H383.276V144.72ZM420.685 182L421.805 117.2H437.165L444.285 154.88L451.965 117.2H466.765L467.885 182H457.725L456.525 138.88L449.005 182H439.965L431.965 138.56L431.005 182H420.685ZM481.253 182V117.2H510.373V126.96H495.573V143.04H506.853V152.96H495.573V172.32H510.533V182H481.253ZM521.034 182V117.2H538.874C543.248 117.2 547.034 117.68 550.234 118.64C553.434 119.6 555.914 121.333 557.674 123.84C559.488 126.293 560.394 129.787 560.394 134.32C560.394 136.987 560.181 139.36 559.754 141.44C559.328 143.52 558.528 145.333 557.354 146.88C556.234 148.373 554.608 149.627 552.474 150.64L561.354 182H546.554L539.434 152.96H535.354V182H521.034ZM535.354 144.72H539.354C541.381 144.72 542.954 144.373 544.074 143.68C545.194 142.933 545.968 141.893 546.394 140.56C546.874 139.173 547.114 137.52 547.114 135.6C547.114 132.827 546.608 130.667 545.594 129.12C544.581 127.573 542.714 126.8 539.994 126.8H535.354V144.72Z" fill="black"/>
</g>
<defs>
<clipPath id="clip0_251_153">
<rect width="604.471" height="292.8" fill="white"/>
</clipPath>
</defs>
</svg>
